<?xml version="1.0" encoding="utf-8"?>
<!-- Generator: Adobe Illustrator 19.0.0, SVG Export Plug-In . SVG Version: 6.00 Build 0)  -->
<svg version="1.1" xmlns="http://www.w3.org/2000/svg" xmlns:xlink="http://www.w3.org/1999/xlink" x="0px" y="0px"
	 viewBox="0 0 190 190" style="enable-background:new 0 0 190 190;" xml:space="preserve">
<style type="text/css">
	.st0{display:none;}
	.st1{display:inline;}
	.st2{clip-path:url(#XMLID_106_);fill:none;stroke:#1D5B63;stroke-width:18;stroke-miterlimit:10;}
	.st3{clip-path:url(#XMLID_107_);fill:none;stroke:#0C7E8E;stroke-width:18;stroke-miterlimit:10;}
	.st4{display:inline;fill:none;stroke:#0C7E8E;stroke-width:19.5;stroke-miterlimit:10;}
	.st5{display:inline;fill:none;stroke:#0C7E8E;stroke-width:18.75;stroke-miterlimit:10;}
	.st6{fill:none;stroke:#44ACCA;stroke-width:18;stroke-miterlimit:10;}
</style>
<g id="Layer_1" class="st0">
	<g id="XMLID_3_" class="st1">
		<defs>
			<polygon id="XMLID_1_" points="97.9,95.3 146.2,58.2 176.9,27.2 187.5,0.9 -5,-7.1 3.1,190 187.5,190 174.4,160.6 150.8,137.7 
							"/>
		</defs>
		<clipPath id="XMLID_106_">
			<use xlink:href="#XMLID_1_"  style="overflow:visible;"/>
		</clipPath>
		<circle id="XMLID_5_" class="st2" cx="97.9" cy="95.3" r="85.2"/>
	</g>
</g>
<g id="Layer_3" class="st0">
	<g id="XMLID_133_" class="st1">
		<defs>
			<polygon id="XMLID_134_" points="97.5,95.3 145.8,58.2 186.1,27.4 187.1,0.9 2.8,2.2 2.8,190 187.1,190 187.1,159.1 150.5,142.9 
							"/>
		</defs>
		<clipPath id="XMLID_107_">
			<use xlink:href="#XMLID_134_"  style="overflow:visible;"/>
		</clipPath>
		<circle id="XMLID_135_" class="st3" cx="97.5" cy="95.3" r="85.2"/>
	</g>
	<line id="XMLID_132_" class="st4" x1="162.4" y1="153.2" x2="162.4" y2="85.8"/>
	<line id="XMLID_131_" class="st5" x1="172" y1="95.2" x2="97.5" y2="95.2"/>
</g>
<g id="Layer_2">
	<ellipse id="XMLID_6_" class="st6" cx="95" cy="95.2" rx="80.9" ry="85.2"/>
	<line id="XMLID_4_" class="st6" x1="175.8" y1="2.2" x2="175.8" y2="189.2"/>
</g>
</svg>
